<svg width="20" height="21" viewBox="0 0 20 21" fill="none" xmlns="http://www.w3.org/2000/svg">
<g clip-path="url(#clip0_1482_1643)">
<path d="M18.3438 3.22562H13.4894C12.678 3.22507 11.8905 3.50091 11.2568 4.00771C10.6231 4.51451 10.181 5.22204 10.0031 6.01374C9.8249 5.22225 9.3826 4.51498 8.749 4.00826C8.11539 3.50153 7.3282 3.22552 6.51689 3.22562H1.66626C1.22423 3.22578 0.800353 3.40145 0.487789 3.71402C0.175225 4.02658 -0.000444703 4.45046 -0.000610352 4.89249V13.4275C-0.000444703 13.8695 0.175225 14.2934 0.487789 14.606C0.800353 14.9185 1.22423 15.0942 1.66626 15.0944H4.78064C8.32939 15.0944 9.38814 15.9412 9.89501 17.6987C9.91939 17.7962 10.0756 17.7962 10.1031 17.6987C10.6138 15.9419 11.6725 15.0944 15.2175 15.0944H18.3319C18.7739 15.0942 19.1978 14.9185 19.5104 14.606C19.8229 14.2934 19.9986 13.8695 19.9988 13.4275V4.89624C19.9988 4.4557 19.8247 4.033 19.5145 3.72021C19.2043 3.40742 18.783 3.22987 18.3425 3.22624L18.3438 3.22562ZM8.40251 12.4406C8.40268 12.4566 8.39966 12.4724 8.39363 12.4872C8.38759 12.502 8.37867 12.5154 8.36737 12.5267C8.35608 12.538 8.34265 12.5469 8.32786 12.553C8.31308 12.559 8.29723 12.562 8.28126 12.5619H2.71501C2.69907 12.5619 2.68326 12.5589 2.66852 12.5528C2.65377 12.5467 2.64037 12.5378 2.62909 12.5265C2.61782 12.5153 2.60889 12.5019 2.60283 12.4871C2.59676 12.4724 2.59368 12.4566 2.59376 12.4406V11.6456C2.59376 11.58 2.64564 11.5244 2.71501 11.5244H8.28439C8.35001 11.5244 8.40564 11.5762 8.40564 11.6456V12.4406H8.40251ZM8.40251 10.3262C8.4026 10.3422 8.39952 10.358 8.39345 10.3727C8.38739 10.3875 8.37846 10.4009 8.36719 10.4122C8.35591 10.4234 8.34251 10.4324 8.32776 10.4384C8.31301 10.4445 8.29721 10.4476 8.28126 10.4475H2.71501C2.69907 10.4476 2.68326 10.4445 2.66852 10.4384C2.65377 10.4324 2.64037 10.4234 2.62909 10.4122C2.61782 10.4009 2.60889 10.3875 2.60283 10.3727C2.59676 10.358 2.59368 10.3422 2.59376 10.3262V9.53124C2.59376 9.46499 2.64564 9.40999 2.71501 9.40999H8.28439C8.35001 9.40999 8.40564 9.46187 8.40564 9.53124V10.3262H8.40251ZM8.40251 8.21187C8.4026 8.22781 8.39952 8.24362 8.39345 8.25836C8.38739 8.27311 8.37846 8.28651 8.36719 8.29779C8.35591 8.30906 8.34251 8.31799 8.32776 8.32406C8.31301 8.33012 8.29721 8.3332 8.28126 8.33312H2.71501C2.69907 8.3332 2.68326 8.33012 2.66852 8.32406C2.65377 8.31799 2.64037 8.30906 2.62909 8.29779C2.61782 8.28651 2.60889 8.27311 2.60283 8.25836C2.59676 8.24362 2.59368 8.22781 2.59376 8.21187V7.41687C2.59376 7.35124 2.64564 7.29562 2.71501 7.29562H8.28439C8.35001 7.29562 8.40564 7.34749 8.40564 7.41687V8.21187H8.40251ZM17.4063 12.4375C17.4063 12.4534 17.4033 12.4692 17.3972 12.484C17.3911 12.4987 17.3822 12.5121 17.3709 12.5234C17.3597 12.5347 17.3463 12.5436 17.3315 12.5497C17.3168 12.5557 17.301 12.5588 17.285 12.5587H11.7188C11.7028 12.5588 11.687 12.5557 11.6723 12.5497C11.6575 12.5436 11.6441 12.5347 11.6328 12.5234C11.6216 12.5121 11.6126 12.4987 11.6066 12.484C11.6005 12.4692 11.5974 12.4534 11.5975 12.4375V11.6425C11.5975 11.5769 11.6494 11.5212 11.7188 11.5212H17.2881C17.3544 11.5212 17.4094 11.5731 17.4094 11.6425V12.4375H17.4063ZM17.4063 10.3231C17.4064 10.3391 17.4034 10.3549 17.3974 10.3697C17.3913 10.3845 17.3824 10.3979 17.3711 10.4092C17.3598 10.4205 17.3464 10.4294 17.3316 10.4355C17.3168 10.4415 17.301 10.4445 17.285 10.4444H11.7188C11.7028 10.4444 11.687 10.4414 11.6723 10.4353C11.6575 10.4292 11.6441 10.4203 11.6328 10.409C11.6216 10.3978 11.6126 10.3844 11.6066 10.3696C11.6005 10.3549 11.5974 10.3391 11.5975 10.3231V9.52812C11.5975 9.46249 11.6494 9.40687 11.7188 9.40687H17.2881C17.3544 9.40687 17.4094 9.45874 17.4094 9.52812V10.3231H17.4063ZM17.4063 8.20812C17.4063 8.22406 17.4033 8.23987 17.3972 8.25462C17.3911 8.26936 17.3822 8.28276 17.3709 8.29404C17.3597 8.30531 17.3463 8.31424 17.3315 8.32031C17.3168 8.32637 17.301 8.32945 17.285 8.32937H11.7188C11.7028 8.32945 11.687 8.32637 11.6723 8.32031C11.6575 8.31424 11.6441 8.30531 11.6328 8.29404C11.6216 8.28276 11.6126 8.26936 11.6066 8.25462C11.6005 8.23987 11.5974 8.22406 11.5975 8.20812V7.41624C11.5975 7.35062 11.6494 7.29499 11.7188 7.29499H17.2881C17.3544 7.29499 17.4094 7.34687 17.4094 7.41624V8.20812H17.4063Z" fill="white"/>
</g>
<defs>
<clipPath id="clip0_1482_1643">
<rect width="20" height="20" fill="white" transform="translate(0 0.499992)"/>
</clipPath>
</defs>
</svg>
