<svg width="37" height="36" viewBox="0 0 37 36" fill="none" xmlns="http://www.w3.org/2000/svg">
<g clip-path="url(#clip0_1482_1508)">
<path d="M31.4531 12.6218V5.97653C31.4531 5.39406 30.9809 4.92184 30.3984 4.92184H23.7531L19.1192 0.307305C18.7076 -0.102476 18.0423 -0.102476 17.6307 0.307305L12.9969 4.92184H6.35156C5.76909 4.92184 5.29687 5.39406 5.29687 5.97653V12.6218L0.682336 17.2558C0.272555 17.6673 0.272555 18.3327 0.682336 18.7442L5.29687 23.3781V30.0234C5.29687 30.6059 5.76909 31.0781 6.35156 31.0781H12.9969L17.6307 35.6926C17.8365 35.8975 18.1058 36 18.375 36C18.6442 36 18.9135 35.8975 19.1192 35.6926L23.7531 31.0781H30.3984C30.9809 31.0781 31.4531 30.6059 31.4531 30.0234V23.3781L36.0677 18.7442C36.4774 18.3327 36.4774 17.6673 36.0677 17.2558L31.4531 12.6218ZM29.6511 22.1983C29.4543 22.396 29.3437 22.6635 29.3437 22.9424V28.9687H23.3175C23.0386 28.9687 22.771 29.0792 22.5734 29.2761L18.375 33.4568L14.1767 29.2761C13.979 29.0792 13.7115 28.9687 13.4325 28.9687H7.40625V22.9425C7.40625 22.6636 7.29572 22.396 7.09891 22.1983L2.91813 18L7.09891 13.8017C7.29572 13.604 7.40625 13.3364 7.40625 13.0575V7.03122H13.4325C13.7114 7.03122 13.979 6.92069 14.1766 6.72388L18.375 2.5431L22.5734 6.72388C22.7711 6.92069 23.0386 7.03122 23.3175 7.03122H29.3437V13.0574C29.3437 13.3364 29.4543 13.604 29.6511 13.8016L33.8319 18L29.6511 22.1983Z" fill="#994EF8"/>
</g>
<defs>
<clipPath id="clip0_1482_1508">
<rect width="36" height="36" fill="white" transform="translate(0.375 -3.05176e-05)"/>
</clipPath>
</defs>
</svg>
