<svg width="33" height="32" viewBox="0 0 33 32" fill="none" xmlns="http://www.w3.org/2000/svg">
<g clip-path="url(#clip0_1482_1650)">
<path d="M24.4934 4.21755L21.5161 5.40536L20.9341 4.07809L19.6132 4.22083C18.2877 4.36351 17.1335 4.84115 16.0298 5.71041C14.9258 4.83902 13.7796 4.36181 12.4724 4.22077L11.151 4.07809L10.5695 5.40536L7.59156 4.21755L2.00537 17.2173L5.34102 18.486V27.9215L16.0291 22.5918L26.7172 27.9215V18.4946L30.0802 17.2176L24.4934 4.21755ZM6.98537 25.2681V19.1119L13.988 21.7762L6.98537 25.2681ZM15.207 20.4843L4.19121 16.2933L8.47081 6.33412L9.90998 6.90861L6.23398 15.2935L15.207 18.7352L15.207 20.4843ZM15.207 16.9777L9.01444 14.6026C10.0723 14.0634 11.3286 13.9936 12.4752 14.4589L15.207 15.6516L15.207 16.9777ZM15.207 13.8614L13.1066 12.9445C11.8054 12.4132 10.4018 12.3767 9.128 12.7856L12.1742 5.83832C12.3434 5.88131 13.6483 5.83985 15.207 7.15897V13.8614ZM16.8512 7.16001C18.3807 5.87212 19.8246 5.86036 19.9114 5.83838L22.945 12.7586C21.7447 12.3771 20.4396 12.4286 19.1752 12.9445L16.8512 13.8936V7.16001ZM16.8512 15.6659L19.7978 14.4625C20.912 14.0073 22.0747 14.0669 23.0838 14.596L16.8512 16.9794V15.6659ZM25.0728 25.268L18.0719 21.7768L25.0728 19.1188V25.268ZM16.8512 20.4854V18.7356L25.8516 15.2941L22.175 6.90861L23.6144 6.33417L27.894 16.2928L16.8512 20.4854Z" fill="#8688A2"/>
</g>
<defs>
<clipPath id="clip0_1482_1650">
<rect width="28.0749" height="28" fill="white" transform="translate(2.00537 1.99997)"/>
</clipPath>
</defs>
</svg>
