<svg width="33" height="32" viewBox="0 0 33 32" fill="none" xmlns="http://www.w3.org/2000/svg">
<g clip-path="url(#clip0_1482_1654)">
<path d="M13.9517 22.0473H18.5246C18.6735 20.6163 19.365 19.4353 20.4874 18.1459C20.6148 18.0007 21.4259 17.1137 21.5217 16.9875C22.3184 15.937 22.8178 14.6704 22.9623 13.3335C23.1069 11.9966 22.8907 10.6438 22.3387 9.43091C21.7867 8.218 20.9213 7.19431 19.8423 6.47772C18.7632 5.76114 17.5143 5.3808 16.2394 5.38051C14.9645 5.38023 13.7154 5.76 12.636 6.4761C11.5567 7.1922 10.6909 8.2155 10.1384 9.42817C9.58593 10.6408 9.3692 11.9935 9.51319 13.3305C9.65719 14.6675 10.156 15.9343 10.9523 16.9852C11.0493 17.1125 11.8626 18.0007 11.9878 18.1447C13.1113 19.4353 13.8028 20.6163 13.9517 22.0473ZM18.4942 24.4284H13.9821V25.6189H18.4942V24.4284ZM9.19262 18.4757C8.13025 17.0748 7.46446 15.3856 7.27192 13.6028C7.07939 11.82 7.36796 10.016 8.10438 8.39873C8.8408 6.78143 9.99513 5.4166 11.4344 4.46145C12.8736 3.50629 14.5392 2.99968 16.2394 2.99997C17.9395 3.00026 19.605 3.50743 21.0439 4.46307C22.4829 5.41871 23.6368 6.78393 24.3727 8.40148C25.1087 10.019 25.3967 11.8231 25.2036 13.6058C25.0105 15.3886 24.3442 17.0775 23.2814 18.4781C22.5821 19.3972 20.7502 20.8568 20.7502 22.6426V25.6189C20.7502 26.2504 20.5125 26.856 20.0894 27.3026C19.6663 27.7491 19.0925 28 18.4942 28H13.9821C13.3838 28 12.81 27.7491 12.3869 27.3026C11.9638 26.856 11.7261 26.2504 11.7261 25.6189V22.6426C11.7261 20.8568 9.89312 19.3972 9.19262 18.4757ZM17.3662 12.5278H20.1862L15.1101 19.671V14.9089H12.2901L17.3662 7.76091V12.529V12.5278Z" fill="#8789A3"/>
</g>
<defs>
<clipPath id="clip0_1482_1654">
<rect width="32.0856" height="32" fill="white" transform="translate(0.19519 -3.05176e-05)"/>
</clipPath>
</defs>
</svg>
