<svg width="33" height="32" viewBox="0 0 33 32" fill="none" xmlns="http://www.w3.org/2000/svg">
<g clip-path="url(#clip0_1482_1658)">
<path d="M29.6631 2.99997H28.8994C27.6529 2.99997 26.5439 3.59919 25.8464 4.52341H25.8444C24.5963 4.52341 23.4864 5.12364 22.7893 6.04938V6.04684C20.6834 6.04684 18.9706 7.75553 18.9706 9.85544V13.5192L16.6284 15.8228L14.2862 13.5192V9.85544C14.2862 7.75553 12.5734 6.04684 10.4674 6.04684V6.04938C9.77032 5.12364 8.66048 4.52341 7.4124 4.52341H7.41037C6.71296 3.59919 5.60383 2.99997 4.35738 2.99997H3.59363V14.9651L9.00514 21.3828H8.17616V29H25.0806V21.3828H24.2516L29.6631 14.9651V2.99997ZM12.7587 9.85544V12.164C12.2927 11.8835 11.7718 11.706 11.2312 11.6434V8.332C11.2312 8.11059 11.2109 7.89325 11.1747 7.682C12.0928 7.98009 12.7587 8.84134 12.7587 9.85544ZM8.17616 6.17735C9.06517 6.49179 9.70367 7.33877 9.70367 8.332V11.7709C9.34005 11.8771 8.9944 12.0369 8.6782 12.2452L8.17616 11.745V6.17735ZM15.8646 27.4765H9.70367V22.9062H15.8646V27.4765ZM15.8646 21.3828H11.001L5.12114 14.4101V4.65397C6.01015 4.96825 6.64865 5.81528 6.64865 6.80856V12.3762L11.4547 17.1695L12.5352 16.0924L9.79578 13.3604C10.1003 13.2145 10.4358 13.1379 10.7837 13.1379C11.3957 13.1379 11.9711 13.3756 12.4039 13.8072L15.8646 17.2112V21.3828ZM23.5531 8.332C23.5531 7.33877 24.1916 6.49179 25.0806 6.17735V11.745L24.5786 12.2452C24.2624 12.0369 23.9167 11.8771 23.5531 11.7709V8.332ZM20.4981 9.85544C20.4981 8.84139 21.164 7.98009 22.0821 7.682C22.0449 7.89669 22.026 8.11413 22.0256 8.332V11.6434C21.485 11.706 20.9641 11.8835 20.4981 12.164V9.85544ZM23.5531 27.4765H17.3921V22.9062H23.5531V27.4765ZM28.1356 14.4101L22.2557 21.3828H17.3921V17.2112L20.8529 13.8072C21.2857 13.3756 21.8611 13.1379 22.4731 13.1379C22.821 13.1379 23.1565 13.2145 23.461 13.3604L20.7217 16.0924L21.802 17.1695L26.6081 12.3763V6.80856C26.6081 5.81533 27.2466 4.96835 28.1356 4.65391V14.4101Z" fill="#8789A3"/>
<path d="M20.498 24.4296H22.0256V25.9531H20.498V24.4296Z" fill="#8789A3"/>
<path d="M11.2312 24.4296H12.7587V25.9531H11.2312V24.4296Z" fill="#8789A3"/>
</g>
<defs>
<clipPath id="clip0_1482_1658">
<rect width="26.0695" height="26" fill="white" transform="translate(3.59363 2.99997)"/>
</clipPath>
</defs>
</svg>
