<svg width="33" height="32" viewBox="0 0 33 32" fill="none" xmlns="http://www.w3.org/2000/svg">
<g clip-path="url(#clip0_1482_1664)">
<g clip-path="url(#clip1_1482_1664)">
<path d="M23.8362 24.8063V23.8247C23.8362 22.2612 22.9649 20.8556 21.5627 20.1562L18.9009 18.8289V13.8714C18.9009 12.5645 18.2917 11.3677 17.2724 10.6017C17.3256 10.3129 17.5027 10.07 17.733 9.99356C19.4158 9.43509 20.5459 7.87097 20.5459 6.10128C20.5459 3.56624 18.2748 1.64578 15.7484 2.0555C13.7947 2.37203 12.3207 4.18722 12.3207 6.27688V9.04954C10.2706 11.2129 9.03063 14.144 9.03063 17.3041V21.9374C9.03063 23.1653 9.374 24.3404 10.0149 25.3542C8.47796 25.9489 7.38562 27.4397 7.38562 29.1798V30.0002H23.0135C24.374 30.0002 25.4812 28.896 25.4812 27.5392C25.4817 26.9776 25.3288 26.4265 25.039 25.945C24.7492 25.4636 24.3334 25.0699 23.8362 24.8063ZM20.9863 21.7105C21.7337 22.1529 22.1909 22.9476 22.1909 23.8247V24.2136L20.3277 23.594L20.9863 21.7105ZM13.9659 6.27688C13.9659 4.98298 14.8458 3.86402 16.0127 3.67474C17.5911 3.41842 18.9009 4.62986 18.9009 6.10128C18.9015 6.61807 18.7389 7.12192 18.436 7.54123C18.1331 7.96054 17.7054 8.27399 17.2137 8.43704C16.5645 8.6524 16.0598 9.15399 15.8017 9.79121L13.9659 8.87563V6.27688ZM10.6756 17.3041C10.6756 14.7274 11.6113 12.2936 13.3216 10.3889L15.8917 11.6703C16.7333 12.0896 17.2559 12.9336 17.2559 13.8714V19.8428L19.5048 20.9645L18.7671 23.0756L15.6108 22.026V14.3047H13.9658V23.2085L16.4574 24.0369C15.3603 25.2515 13.6236 25.7405 12.0043 25.2024L11.9522 25.1849C11.128 24.2983 10.6756 23.1531 10.6756 21.9373V17.3041ZM23.0135 28.3595H9.17155C9.49782 27.4413 10.3561 26.7725 11.3748 26.7221C11.4478 26.7405 12.2193 27.0607 13.3441 27.0607C15.2198 27.0607 17.0113 26.1573 18.1168 24.5883L22.838 26.1577C23.1288 26.2542 23.3818 26.4396 23.561 26.6875C23.7402 26.9355 23.8365 27.2335 23.8362 27.5392C23.8362 27.9915 23.4672 28.3595 23.0135 28.3595H23.0135Z" fill="#8789A3"/>
</g>
</g>
<defs>
<clipPath id="clip0_1482_1664">
<rect width="32.0856" height="32" fill="white" transform="translate(0.390381 -3.05176e-05)"/>
</clipPath>
<clipPath id="clip1_1482_1664">
<rect width="28.0749" height="28" fill="white" transform="translate(2.39575 1.99997)"/>
</clipPath>
</defs>
</svg>
